<svg width="32" height="32" viewBox="0 0 32 32" fill="none" xmlns="http://www.w3.org/2000/svg">
<path d="M21.4144 10.4578C21.3339 10.3773 21.2375 10.3133 21.1309 10.2693C21.0243 10.2253 20.9097 10.2023 20.7941 10.2016H6.39251C6.32296 10.2016 6.25486 10.2214 6.19611 10.2587C6.13736 10.296 6.09052 10.3493 6.06128 10.4121C6.03204 10.4749 6.02166 10.5446 6.03124 10.6131C6.04082 10.6816 6.06997 10.7461 6.11501 10.7989L10.5861 15.2701L6.11501 19.7412C6.06997 19.794 6.04082 19.8585 6.03124 19.927C6.02166 19.9955 6.03204 20.0652 6.06128 20.128C6.09052 20.1908 6.13736 20.2441 6.19611 20.2814C6.25486 20.3187 6.32296 20.3385 6.39251 20.3385H20.7941C20.9097 20.3378 21.0243 20.3148 21.1309 20.2708C21.2375 20.2268 21.3339 20.1628 21.4144 20.0823L25.8855 15.6112C25.966 15.5307 26.03 15.4343 26.074 15.3277C26.118 15.2211 26.141 15.1065 26.141 14.9909C26.141 14.8753 26.118 14.7607 26.074 14.6541C26.03 14.5475 25.966 14.4511 25.8855 14.3706L21.4144 10.4578Z" fill="url(#paint0_linear_1_2)"/>
<path d="M6.11501 10.7989L10.5861 15.2701L6.11501 19.7412C6.06997 19.794 6.04082 19.8585 6.03124 19.927C6.02166 19.9955 6.03204 20.0652 6.06128 20.128C6.09052 20.1908 6.13736 20.2441 6.19611 20.2814C6.25486 20.3187 6.32296 20.3385 6.39251 20.3385H20.7941C20.9097 20.3378 21.0243 20.3148 21.1309 20.2708C21.2375 20.2268 21.3339 20.1628 21.4144 20.0823L25.8855 15.6112C25.966 15.5307 26.03 15.4343 26.074 15.3277C26.118 15.2211 26.141 15.1065 26.141 14.9909C26.141 14.8753 26.118 14.7607 26.074 14.6541C26.03 14.5475 25.966 14.4511 25.8855 14.3706L21.4144 10.4578C21.3339 10.3773 21.2375 10.3133 21.1309 10.2693C21.0243 10.2253 20.9097 10.2023 20.7941 10.2016H6.39251C6.32296 10.2016 6.25486 10.2214 6.19611 10.2587C6.13736 10.296 6.09052 10.3493 6.06128 10.4121C6.03204 10.4749 6.02166 10.5446 6.03124 10.6131C6.04082 10.6816 6.06997 10.7461 6.11501 10.7989Z" fill="url(#paint1_linear_1_2)"/>
<defs>
<linearGradient id="paint0_linear_1_2" x1="6.03125" y1="15.27" x2="26.1412" y2="15.27" gradientUnits="userSpaceOnUse">
<stop stop-color="#9945FF"/>
<stop offset="0.14" stop-color="#8A53F4"/>
<stop offset="0.42" stop-color="#6377D6"/>
<stop offset="0.79" stop-color="#24B0A7"/>
<stop offset="0.99" stop-color="#00D18C"/>
<stop offset="1" stop-color="#00D18C"/>
</linearGradient>
<linearGradient id="paint1_linear_1_2" x1="6.03125" y1="15.27" x2="26.1412" y2="15.27" gradientUnits="userSpaceOnUse">
<stop stop-color="#9945FF"/>
<stop offset="0.14" stop-color="#8A53F4"/>
<stop offset="0.42" stop-color="#6377D6"/>
<stop offset="0.79" stop-color="#24B0A7"/>
<stop offset="0.99" stop-color="#00D18C"/>
<stop offset="1" stop-color="#00D18C"/>
</linearGradient>
</defs>
</svg>
