<svg width="418" height="418" viewBox="0 0 418 418" fill="none" xmlns="http://www.w3.org/2000/svg">
<path d="M375.999 112.583V305.417L209 401.834L42.001 305.417V112.583L209 16.166L375.999 112.583Z" stroke="url(#paint0_linear_13_8)" stroke-width="28"/>
<path d="M208.308 88.8599C201.082 141.694 193.928 163.572 178.971 178.544C164.663 192.828 143.889 199.952 96.776 206.751C91.4289 207.51 85.9733 208.269 84.6726 208.414C80.9874 208.776 81.0958 209.101 85.1062 209.607C96.8483 211.018 114.046 213.766 124.271 215.791C148.08 220.529 163.435 226.459 174.021 234.957C191.977 249.314 200.431 271.952 207.694 324.822C209.717 339.576 209.428 338.455 210.006 334.224C212.029 318.602 214.594 302.473 216.762 291.95C226.228 245.915 241.041 229.171 281.578 218.72C293.357 215.683 315.106 211.886 333.894 209.607C337.904 209.101 338.013 208.776 334.327 208.414C330.461 207.98 312.939 205.412 305.785 204.219C259.214 196.372 239.596 185.451 227.565 160.643C220.339 145.78 215.425 124.516 210.331 86.1477L209.5 80L208.308 88.8599Z" fill="white"/>
<defs>
<linearGradient id="paint0_linear_13_8" x1="27.5" y1="209" x2="394.5" y2="209" gradientUnits="userSpaceOnUse">
<stop stop-color="#9475C5"/>
<stop offset="1" stop-color="#1ED3AE"/>
</linearGradient>
</defs>
</svg>
